<svg width="56" height="56" viewBox="0 0 56 56" fill="none" xmlns="http://www.w3.org/2000/svg">
<mask id="mask0_1_1553" style="mask-type:luminance" maskUnits="userSpaceOnUse" x="0" y="0" width="56" height="56">
<path d="M56 0H0V56H56V0Z" fill="white"/>
</mask>
<g mask="url(#mask0_1_1553)">
<path d="M0 28C0 12.54 12.536 0 28 0C43.464 0 56 12.54 56 28C56 43.46 43.464 56 28 56C12.536 56 0 43.46 0 28Z" fill="#586376"/>
<path d="M19.835 38.1099H19.839L18.213 40.9199C17.619 41.9499 16.304 42.31 15.275 41.71C14.247 41.12 13.895 39.8 14.488 38.77L15.687 36.7002L15.802 36.5C16.007 36.2 16.514 35.6901 17.528 35.7901C17.528 35.7901 19.913 36.0501 20.086 37.2901C20.086 37.2901 20.11 37.6999 19.835 38.1099ZM42.908 30.9102H37.835C37.489 30.8902 37.338 30.76 37.279 30.69L37.275 30.6802L31.845 21.2798H31.838L31.513 20.8198C30.979 19.9998 30.131 22.0899 30.131 22.0899C29.119 24.4099 30.275 27.0599 30.678 27.8599L38.22 40.9199C38.814 41.9499 40.129 42.3 41.157 41.71C42.186 41.11 42.538 39.8 41.944 38.77L40.058 35.5C40.022 35.43 39.958 35.21 40.345 35.21H42.908C44.095 35.21 45.058 34.2501 45.058 33.0601C45.058 31.8701 44.095 30.9102 42.908 30.9102ZM33.055 33.8301C33.055 33.8301 33.325 35.21 32.278 35.21H31.23H13.525C12.338 35.21 11.375 34.2501 11.375 33.0601C11.375 31.8701 12.338 30.9102 13.525 30.9102H18.346C19.125 30.8602 19.309 30.4102 19.309 30.4102L19.313 30.4199L25.607 19.52H25.605C25.719 19.31 25.624 19.1101 25.607 19.0801L23.529 15.48C22.935 14.45 23.288 13.1301 24.316 12.5401C25.345 11.9401 26.66 12.3001 27.253 13.3301L28.217 15L29.179 13.3301C29.773 12.3001 31.088 11.9501 32.117 12.5401C33.145 13.1401 33.498 14.45 32.904 15.48L24.147 30.6499C24.109 30.7399 24.097 30.8802 24.382 30.9102H29.616L29.617 30.96C29.617 30.96 32.643 31.0101 33.055 33.8301Z" fill="white"/>
</g>
</svg>
