<svg width="40" height="40" viewBox="0 0 40 40" fill="none" xmlns="http://www.w3.org/2000/svg">
<path fill-rule="evenodd" clip-rule="evenodd" d="M10 0C4.477 0 0 4.4772 0 10V30C0 35.523 4.477 40 10 40H30C35.523 40 40 35.523 40 30V10C40 4.4772 35.523 0 30 0H10ZM12.273 10.909C11.269 10.909 10.455 11.723 10.455 12.727H14.091V10.909H12.273ZM13.182 13.182H10.455V14.545H9.545V16.364H10.455V22.727H13.182V16.364H14.091V14.545H13.182V13.182ZM15.909 10.909H15V22.727H17.727V12.727C17.727 11.723 16.913 10.909 15.909 10.909ZM20 14.545H23.636C24.641 14.545 25.455 15.359 25.455 16.364V22.727H20.455C19.45 22.727 18.636 21.913 18.636 20.909V19.091C18.636 18.087 19.45 17.273 20.455 17.273H22.273V19.091H21.364V20.909H22.727V16.364H20V14.545ZM26.364 22.727H29.091V16.364H30V14.545H29.091V12.727C29.091 11.723 28.277 10.909 27.273 10.909H26.364V22.727ZM9.091 25.455V26.364H16.364L20 27.273L23.636 26.364H30.909V25.455H23.636L20 26.364L16.364 25.455H9.091ZM16.364 27.273H5.455V28.182H16.364L20 29.091L23.636 28.182H34.545V27.273H23.636L20 28.182L16.364 27.273Z" fill="url(#paint0_linear_1_851)"/>
<defs>
<linearGradient id="paint0_linear_1_851" x1="20" y1="0" x2="20" y2="40" gradientUnits="userSpaceOnUse">
<stop stop-color="#3381FF"/>
<stop offset="1" stop-color="#3733FF"/>
</linearGradient>
</defs>
</svg>
