<svg width="40" height="48" viewBox="0 0 40 48" fill="none" xmlns="http://www.w3.org/2000/svg">
<path d="M21.591 4.17993C24.745 0.0199318 29.129 0 29.129 0C29.129 0 29.781 3.90992 26.648 7.66992C23.303 11.6899 19.5 11.03 19.5 11.03C19.5 11.03 18.786 7.86993 21.591 4.17993ZM19.901 13.77C21.524 13.77 24.535 11.54 28.455 11.54C35.201 11.54 37.856 16.3398 37.856 16.3398C37.856 16.3398 32.664 18.9999 32.664 25.4399C32.664 32.6999 39.131 35.21 39.131 35.21C39.131 35.21 34.611 47.9302 28.505 47.9302C25.7 47.9302 23.52 46.04 20.565 46.04C17.554 46.04 14.566 48 12.62 48C7.04399 48 0 35.93 0 26.23C0 16.68 5.96199 11.6799 11.555 11.6799C15.19 11.6799 18.011 13.77 19.901 13.77Z" fill="#586376"/>
</svg>
