<svg width="156" height="40" viewBox="0 0 156 40" fill="none" xmlns="http://www.w3.org/2000/svg">
<path fill-rule="evenodd" clip-rule="evenodd" d="M10 0C4.47715 0 0 4.47715 0 10V30C0 35.5228 4.47715 40 10 40H30C35.5228 40 40 35.5228 40 30V10C40 4.47715 35.5228 0 30 0H10ZM12.2727 10.9091C11.2686 10.9091 10.4545 11.7231 10.4545 12.7273H14.0909V10.9091H12.2727ZM13.1818 13.1818H10.4545V14.5455H9.54545V16.3636H10.4545V22.7273H13.1818V16.3636H14.0909V14.5455H13.1818V13.1818ZM15.9091 10.9091H15V22.7273H17.7273V12.7273C17.7273 11.7231 16.9132 10.9091 15.9091 10.9091ZM20 14.5455H23.6364C24.6405 14.5455 25.4545 15.3595 25.4545 16.3636V22.7273H20.4545C19.4504 22.7273 18.6364 21.9132 18.6364 20.9091V19.0909C18.6364 18.0868 19.4504 17.2727 20.4545 17.2727H22.2727V19.0909H21.3636V20.9091H22.7273V16.3636H20V14.5455ZM26.3636 22.7273H29.0909V16.3636H30V14.5455H29.0909V12.7273C29.0909 11.7231 28.2769 10.9091 27.2727 10.9091H26.3636V22.7273ZM9.09091 25.4545V26.3636H16.3636L20 27.2727L23.6364 26.3636H30.9091V25.4545H23.6364L20 26.3636L16.3636 25.4545H9.09091ZM16.3636 27.2727H5.45455V28.1818H16.3636L20 29.0909L23.6364 28.1818H34.5455V27.2727H23.6364L20 28.1818L16.3636 27.2727Z" fill="url(#paint0_linear_985_1293)"/>
<path d="M59.9609 16.6328H55.7188L54.9219 19H52.4062L56.5156 7.48438H59.2344L63.3125 19H60.7031L59.9609 16.6328ZM59.2891 14.6484L57.8516 10.1172L56.3672 14.6484H59.2891ZM71.8438 18.7188C71.2083 19.1094 70.4271 19.3047 69.5 19.3047C67.974 19.3047 66.724 18.776 65.75 17.7188C64.7344 16.6562 64.2266 15.2031 64.2266 13.3594C64.2266 11.4948 64.7396 10 65.7656 8.875C66.7917 7.75 68.1484 7.1875 69.8359 7.1875C71.2995 7.1875 72.474 7.5599 73.3594 8.30469C74.25 9.04427 74.7604 9.96875 74.8906 11.0781H72.5234C72.3411 10.2917 71.8958 9.74219 71.1875 9.42969C70.7917 9.25781 70.3516 9.17188 69.8672 9.17188C68.9401 9.17188 68.1771 9.52344 67.5781 10.2266C66.9844 10.9245 66.6875 11.9766 66.6875 13.3828C66.6875 14.7995 67.0104 15.8021 67.6562 16.3906C68.3021 16.9792 69.0365 17.2734 69.8594 17.2734C70.6667 17.2734 71.3281 17.0417 71.8438 16.5781C72.3594 16.1094 72.6771 15.4974 72.7969 14.7422H70.1328V12.8203H74.9297V19H73.3359L73.0938 17.5625C72.6302 18.1094 72.2135 18.4948 71.8438 18.7188ZM82.3281 19.3203C80.6823 19.3203 79.4245 18.8724 78.5547 17.9766C77.388 16.8776 76.8047 15.2943 76.8047 13.2266C76.8047 11.1172 77.388 9.53385 78.5547 8.47656C79.4245 7.58073 80.6823 7.13281 82.3281 7.13281C83.974 7.13281 85.2318 7.58073 86.1016 8.47656C87.263 9.53385 87.8438 11.1172 87.8438 13.2266C87.8438 15.2943 87.263 16.8776 86.1016 17.9766C85.2318 18.8724 83.974 19.3203 82.3281 19.3203ZM84.6016 16.2266C85.1589 15.5234 85.4375 14.5234 85.4375 13.2266C85.4375 11.9349 85.1562 10.9375 84.5938 10.2344C84.0365 9.52604 83.2812 9.17188 82.3281 9.17188C81.375 9.17188 80.6146 9.52344 80.0469 10.2266C79.4792 10.9297 79.1953 11.9297 79.1953 13.2266C79.1953 14.5234 79.4792 15.5234 80.0469 16.2266C80.6146 16.9297 81.375 17.2812 82.3281 17.2812C83.2812 17.2812 84.0391 16.9297 84.6016 16.2266ZM94.5781 14.4844H92.0938V19H89.7422V7.48438H95.3906C96.1979 7.5 96.8177 7.59896 97.25 7.78125C97.6875 7.96354 98.0573 8.23177 98.3594 8.58594C98.6094 8.8776 98.8073 9.20052 98.9531 9.55469C99.099 9.90885 99.1719 10.3125 99.1719 10.7656C99.1719 11.3125 99.0339 11.8516 98.7578 12.3828C98.4818 12.9089 98.026 13.2812 97.3906 13.5C97.9219 13.7135 98.2969 14.0182 98.5156 14.4141C98.7396 14.8047 98.8516 15.4036 98.8516 16.2109V16.9844C98.8516 17.5104 98.8724 17.8672 98.9141 18.0547C98.9766 18.3516 99.1224 18.5703 99.3516 18.7109V19H96.7031C96.6302 18.7448 96.5781 18.5391 96.5469 18.3828C96.4844 18.0599 96.4505 17.7292 96.4453 17.3906L96.4297 16.3203C96.4193 15.5859 96.2839 15.0964 96.0234 14.8516C95.7682 14.6068 95.2865 14.4844 94.5781 14.4844ZM96.0391 12.3906C96.5182 12.1719 96.7578 11.7396 96.7578 11.0938C96.7578 10.3958 96.526 9.92708 96.0625 9.6875C95.8021 9.55208 95.4115 9.48438 94.8906 9.48438H92.0938V12.5781H94.8203C95.362 12.5781 95.7682 12.5156 96.0391 12.3906ZM107.992 16.6328H103.75L102.953 19H100.438L104.547 7.48438H107.266L111.344 19H108.734L107.992 16.6328ZM107.32 14.6484L105.883 10.1172L104.398 14.6484H107.32ZM124.836 9.52344H119.062V12.1719H124.117V14.1719H119.062V19H116.672V7.5H124.836V9.52344ZM126.453 7.48438H128.859V16.9297H134.562V19H126.453V7.48438ZM142.977 16.6328H138.734L137.938 19H135.422L139.531 7.48438H142.25L146.328 19H143.719L142.977 16.6328ZM142.305 14.6484L140.867 10.1172L139.383 14.6484H142.305ZM154.977 7.48438V9.52344H151.531V19H149.109V9.52344H145.648V7.48438H154.977Z" fill="#18222D"/>
<path d="M56.6289 24.1582C58.1484 24.1582 59.2734 24.6465 60.0039 25.623C60.5742 26.3848 60.8594 27.3594 60.8594 28.5469C60.8594 29.832 60.5332 30.9004 59.8809 31.752C59.1152 32.752 58.0234 33.252 56.6055 33.252C55.2812 33.252 54.2402 32.8145 53.4824 31.9395C52.8066 31.0957 52.4688 30.0293 52.4688 28.7402C52.4688 27.5762 52.7578 26.5801 53.3359 25.752C54.0781 24.6895 55.1758 24.1582 56.6289 24.1582ZM56.7461 32.209C57.7734 32.209 58.5156 31.8418 58.9727 31.1074C59.4336 30.3691 59.6641 29.5215 59.6641 28.5645C59.6641 27.5527 59.3984 26.7383 58.8672 26.1211C58.3398 25.5039 57.6172 25.1953 56.6992 25.1953C55.8086 25.1953 55.082 25.502 54.5195 26.1152C53.957 26.7246 53.6758 27.625 53.6758 28.8164C53.6758 29.7695 53.916 30.5742 54.3965 31.2305C54.8809 31.8828 55.6641 32.209 56.7461 32.209ZM62.4733 26.7246H63.4752V27.6152C63.7721 27.248 64.0866 26.9844 64.4186 26.8242C64.7506 26.6641 65.1198 26.584 65.526 26.584C66.4166 26.584 67.0182 26.8945 67.3307 27.5156C67.5026 27.8555 67.5885 28.3418 67.5885 28.9746V33H66.5162V29.0449C66.5162 28.6621 66.4596 28.3535 66.3463 28.1191C66.1588 27.7285 65.819 27.5332 65.3268 27.5332C65.0768 27.5332 64.8717 27.5586 64.7116 27.6094C64.4225 27.6953 64.1686 27.8672 63.9498 28.125C63.7741 28.332 63.6588 28.5469 63.6041 28.7695C63.5534 28.9883 63.528 29.3027 63.528 29.7129V33H62.4733V26.7246ZM69.5423 24.3926H70.597V33H69.5423V24.3926ZM72.5448 26.7539H73.6171V33H72.5448V26.7539ZM72.5448 24.3926H73.6171V25.5879H72.5448V24.3926ZM75.5767 26.7246H76.5787V27.6152C76.8755 27.248 77.19 26.9844 77.522 26.8242C77.8541 26.6641 78.2232 26.584 78.6295 26.584C79.5201 26.584 80.1216 26.8945 80.4341 27.5156C80.606 27.8555 80.692 28.3418 80.692 28.9746V33H79.6197V29.0449C79.6197 28.6621 79.563 28.3535 79.4498 28.1191C79.2623 27.7285 78.9224 27.5332 78.4302 27.5332C78.1802 27.5332 77.9752 27.5586 77.815 27.6094C77.5259 27.6953 77.272 27.8672 77.0533 28.125C76.8775 28.332 76.7623 28.5469 76.7076 28.7695C76.6568 28.9883 76.6314 29.3027 76.6314 29.7129V33H75.5767V26.7246ZM85.2297 26.584C85.675 26.584 86.1066 26.6895 86.5246 26.9004C86.9426 27.1074 87.2609 27.377 87.4797 27.709C87.6906 28.0254 87.8312 28.3945 87.9016 28.8164C87.9641 29.1055 87.9953 29.5664 87.9953 30.1992H83.3957C83.4152 30.8359 83.5656 31.3477 83.8469 31.7344C84.1281 32.1172 84.5637 32.3086 85.1535 32.3086C85.7043 32.3086 86.1437 32.127 86.4719 31.7637C86.6594 31.5527 86.7922 31.3086 86.8703 31.0312H87.9074C87.8801 31.2617 87.7883 31.5195 87.632 31.8047C87.4797 32.0859 87.3078 32.3164 87.1164 32.4961C86.7961 32.8086 86.3996 33.0195 85.927 33.1289C85.673 33.1914 85.3859 33.2227 85.0656 33.2227C84.2844 33.2227 83.6223 32.9395 83.0793 32.373C82.5363 31.8027 82.2648 31.0059 82.2648 29.9824C82.2648 28.9746 82.5383 28.1562 83.0852 27.5273C83.632 26.8984 84.3469 26.584 85.2297 26.584ZM86.9113 29.3613C86.8684 28.9043 86.7687 28.5391 86.6125 28.2656C86.3234 27.7578 85.841 27.5039 85.1652 27.5039C84.6809 27.5039 84.2746 27.6797 83.9465 28.0312C83.6184 28.3789 83.4445 28.8223 83.425 29.3613H86.9113ZM97.1235 24.1582C98.2134 24.1582 99.0591 24.4453 99.6606 25.0195C100.262 25.5938 100.596 26.2461 100.663 26.9766H99.5259C99.397 26.4219 99.1391 25.9824 98.7524 25.6582C98.3696 25.334 97.8305 25.1719 97.1352 25.1719C96.2876 25.1719 95.602 25.4707 95.0786 26.0684C94.5591 26.6621 94.2993 27.5742 94.2993 28.8047C94.2993 29.8125 94.5337 30.6309 95.0024 31.2598C95.4751 31.8848 96.1782 32.1973 97.1118 32.1973C97.9712 32.1973 98.6255 31.8672 99.0747 31.207C99.313 30.8594 99.4907 30.4023 99.6079 29.8359H100.745C100.643 30.7422 100.307 31.502 99.7368 32.1152C99.0532 32.8535 98.1313 33.2227 96.9712 33.2227C95.9712 33.2227 95.1313 32.9199 94.4516 32.3145C93.5571 31.5137 93.1098 30.2773 93.1098 28.6055C93.1098 27.3359 93.4458 26.2949 94.1177 25.4824C94.8442 24.5996 95.8462 24.1582 97.1235 24.1582ZM102.417 24.3926H103.472V33H102.417V24.3926ZM106.228 31.3301C106.228 31.6348 106.34 31.875 106.562 32.0508C106.785 32.2266 107.049 32.3145 107.353 32.3145C107.724 32.3145 108.084 32.2285 108.431 32.0566C109.017 31.7715 109.31 31.3047 109.31 30.6562V29.8066C109.181 29.8887 109.015 29.957 108.812 30.0117C108.609 30.0664 108.41 30.1055 108.215 30.1289L107.576 30.2109C107.193 30.2617 106.906 30.3418 106.715 30.4512C106.39 30.6348 106.228 30.9277 106.228 31.3301ZM108.783 29.1973C109.025 29.166 109.187 29.0645 109.269 28.8926C109.316 28.7988 109.34 28.6641 109.34 28.4883C109.34 28.1289 109.211 27.8691 108.953 27.709C108.699 27.5449 108.334 27.4629 107.857 27.4629C107.306 27.4629 106.916 27.6113 106.685 27.9082C106.556 28.0723 106.472 28.3164 106.433 28.6406H105.449C105.469 27.8672 105.719 27.3301 106.199 27.0293C106.683 26.7246 107.244 26.5723 107.881 26.5723C108.619 26.5723 109.219 26.7129 109.679 26.9941C110.136 27.2754 110.365 27.7129 110.365 28.3066V31.9219C110.365 32.0312 110.386 32.1191 110.429 32.1855C110.476 32.252 110.572 32.2852 110.717 32.2852C110.763 32.2852 110.816 32.2832 110.875 32.2793C110.933 32.2715 110.996 32.2617 111.062 32.25V33.0293C110.898 33.0762 110.773 33.1055 110.687 33.1172C110.601 33.1289 110.484 33.1348 110.336 33.1348C109.972 33.1348 109.709 33.0059 109.545 32.748C109.459 32.6113 109.398 32.418 109.363 32.168C109.148 32.4492 108.84 32.6934 108.437 32.9004C108.035 33.1074 107.592 33.2109 107.107 33.2109C106.525 33.2109 106.049 33.0352 105.678 32.6836C105.31 32.3281 105.127 31.8848 105.127 31.3535C105.127 30.7715 105.308 30.3203 105.672 30C106.035 29.6797 106.511 29.4824 107.101 29.4082L108.783 29.1973ZM113.086 31.0312C113.118 31.3828 113.205 31.6523 113.35 31.8398C113.616 32.1797 114.077 32.3496 114.733 32.3496C115.123 32.3496 115.467 32.2656 115.764 32.0977C116.061 31.9258 116.209 31.6621 116.209 31.3066C116.209 31.0371 116.09 30.832 115.852 30.6914C115.7 30.6055 115.399 30.5059 114.95 30.3926L114.112 30.1816C113.577 30.0488 113.182 29.9004 112.928 29.7363C112.475 29.4512 112.248 29.0566 112.248 28.5527C112.248 27.959 112.461 27.4785 112.887 27.1113C113.317 26.7441 113.893 26.5605 114.616 26.5605C115.561 26.5605 116.243 26.8379 116.661 27.3926C116.922 27.7441 117.049 28.123 117.041 28.5293H116.045C116.026 28.291 115.942 28.0742 115.793 27.8789C115.551 27.6016 115.131 27.4629 114.534 27.4629C114.135 27.4629 113.832 27.5391 113.625 27.6914C113.422 27.8438 113.321 28.0449 113.321 28.2949C113.321 28.5684 113.455 28.7871 113.725 28.9512C113.881 29.0488 114.112 29.1348 114.416 29.209L115.114 29.3789C115.871 29.5625 116.379 29.7402 116.637 29.9121C117.047 30.1816 117.252 30.6055 117.252 31.1836C117.252 31.7422 117.039 32.2246 116.614 32.6309C116.192 33.0371 115.547 33.2402 114.68 33.2402C113.746 33.2402 113.084 33.0293 112.694 32.6074C112.307 32.1816 112.1 31.6562 112.073 31.0312H113.086ZM119.446 31.0312C119.478 31.3828 119.565 31.6523 119.71 31.8398C119.976 32.1797 120.437 32.3496 121.093 32.3496C121.483 32.3496 121.827 32.2656 122.124 32.0977C122.421 31.9258 122.569 31.6621 122.569 31.3066C122.569 31.0371 122.45 30.832 122.212 30.6914C122.06 30.6055 121.759 30.5059 121.31 30.3926L120.472 30.1816C119.937 30.0488 119.542 29.9004 119.288 29.7363C118.835 29.4512 118.608 29.0566 118.608 28.5527C118.608 27.959 118.821 27.4785 119.247 27.1113C119.677 26.7441 120.253 26.5605 120.976 26.5605C121.921 26.5605 122.603 26.8379 123.021 27.3926C123.282 27.7441 123.409 28.123 123.401 28.5293H122.405C122.386 28.291 122.302 28.0742 122.153 27.8789C121.911 27.6016 121.491 27.4629 120.894 27.4629C120.495 27.4629 120.192 27.5391 119.985 27.6914C119.782 27.8438 119.681 28.0449 119.681 28.2949C119.681 28.5684 119.815 28.7871 120.085 28.9512C120.241 29.0488 120.472 29.1348 120.776 29.209L121.474 29.3789C122.231 29.5625 122.739 29.7402 122.997 29.9121C123.407 30.1816 123.612 30.6055 123.612 31.1836C123.612 31.7422 123.399 32.2246 122.974 32.6309C122.552 33.0371 121.907 33.2402 121.04 33.2402C120.106 33.2402 119.444 33.0293 119.054 32.6074C118.667 32.1816 118.46 31.6562 118.433 31.0312H119.446ZM125.209 26.7246H126.211V27.8086C126.293 27.5977 126.494 27.3418 126.814 27.041C127.134 26.7363 127.504 26.584 127.922 26.584C127.941 26.584 127.974 26.5859 128.021 26.5898C128.068 26.5938 128.148 26.6016 128.261 26.6133V27.7266C128.199 27.7148 128.14 27.707 128.086 27.7031C128.035 27.6992 127.978 27.6973 127.916 27.6973C127.384 27.6973 126.976 27.8691 126.691 28.2129C126.406 28.5527 126.263 28.9453 126.263 29.3906V33H125.209V26.7246ZM132.026 32.3203C132.725 32.3203 133.203 32.0566 133.461 31.5293C133.723 30.998 133.854 30.4082 133.854 29.7598C133.854 29.1738 133.76 28.6973 133.573 28.3301C133.276 27.752 132.764 27.4629 132.037 27.4629C131.393 27.4629 130.924 27.709 130.631 28.2012C130.338 28.6934 130.192 29.2871 130.192 29.9824C130.192 30.6504 130.338 31.207 130.631 31.6523C130.924 32.0977 131.389 32.3203 132.026 32.3203ZM132.067 26.543C132.875 26.543 133.559 26.8125 134.118 27.3516C134.676 27.8906 134.955 28.6836 134.955 29.7305C134.955 30.7422 134.709 31.5781 134.217 32.2383C133.725 32.8984 132.961 33.2285 131.926 33.2285C131.063 33.2285 130.377 32.9375 129.869 32.3555C129.362 31.7695 129.108 30.9844 129.108 30C129.108 28.9453 129.375 28.1055 129.91 27.4805C130.446 26.8555 131.164 26.543 132.067 26.543ZM139.065 32.3203C139.765 32.3203 140.243 32.0566 140.501 31.5293C140.763 30.998 140.894 30.4082 140.894 29.7598C140.894 29.1738 140.8 28.6973 140.612 28.3301C140.315 27.752 139.804 27.4629 139.077 27.4629C138.433 27.4629 137.964 27.709 137.671 28.2012C137.378 28.6934 137.231 29.2871 137.231 29.9824C137.231 30.6504 137.378 31.207 137.671 31.6523C137.964 32.0977 138.429 32.3203 139.065 32.3203ZM139.106 26.543C139.915 26.543 140.599 26.8125 141.157 27.3516C141.716 27.8906 141.995 28.6836 141.995 29.7305C141.995 30.7422 141.749 31.5781 141.257 32.2383C140.765 32.8984 140.001 33.2285 138.966 33.2285C138.103 33.2285 137.417 32.9375 136.909 32.3555C136.401 31.7695 136.147 30.9844 136.147 30C136.147 28.9453 136.415 28.1055 136.95 27.4805C137.485 26.8555 138.204 26.543 139.106 26.543ZM143.615 26.7246H144.658V27.6152C144.908 27.3066 145.134 27.082 145.338 26.9414C145.685 26.7031 146.08 26.584 146.521 26.584C147.021 26.584 147.423 26.707 147.728 26.9531C147.9 27.0938 148.056 27.3008 148.197 27.5742C148.431 27.2383 148.707 26.9902 149.023 26.8301C149.339 26.666 149.695 26.584 150.089 26.584C150.933 26.584 151.507 26.8887 151.812 27.498C151.976 27.8262 152.058 28.2676 152.058 28.8223V33H150.963V28.6406C150.963 28.2227 150.857 27.9355 150.646 27.7793C150.439 27.623 150.185 27.5449 149.884 27.5449C149.47 27.5449 149.113 27.6836 148.812 27.9609C148.515 28.2383 148.367 28.7012 148.367 29.3496V33H147.295V28.9043C147.295 28.4785 147.244 28.168 147.142 27.9727C146.982 27.6797 146.683 27.5332 146.246 27.5332C145.847 27.5332 145.484 27.6875 145.156 27.9961C144.832 28.3047 144.67 28.8633 144.67 29.6719V33H143.615V26.7246Z" fill="#18222D"/>
<defs>
<linearGradient id="paint0_linear_985_1293" x1="20" y1="0" x2="20" y2="40" gradientUnits="userSpaceOnUse">
<stop stop-color="#3381FF"/>
<stop offset="1" stop-color="#3733FF"/>
</linearGradient>
</defs>
</svg>
