<svg width="64" height="64" viewBox="0 0 64 64" fill="none" xmlns="http://www.w3.org/2000/svg">
<path d="M32.1857 -1.37207e-05C14.1072 -0.093304 0.0853349 14.526 -6.8684e-05 31.6885C-0.0897424 49.5687 14.2054 63.9828 31.9053 63.9986C49.5568 64.0416 63.775 49.784 63.9971 32.4377C64.2234 14.6652 49.9425 0.0918413 32.1857 -1.37207e-05ZM51.4314 20.4779C51.8484 20.3832 52.2413 20.1823 52.7708 19.9813C52.1488 19.4962 51.7929 19.0556 52.0207 18.2834C52.4847 18.6796 52.8847 19.0212 53.2519 19.334C53.6163 19.1073 53.9252 18.9164 54.244 18.7183C54.1259 18.6494 53.8696 18.5188 53.6348 18.3581C53.4796 18.2504 53.3544 18.0983 53.2163 17.9663C53.3017 17.8945 53.3885 17.8227 53.4739 17.7524C54.0647 18.2203 54.6568 18.6882 55.3115 19.2063C54.7052 19.6512 53.9892 18.7642 53.686 19.7072C53.8782 19.855 54.1259 19.9899 54.291 20.1937C54.3806 20.3043 54.3294 20.531 54.3422 20.7061C54.1928 20.6932 53.9736 20.7406 53.9024 20.6588C53.3288 19.9914 52.8932 20.3588 52.3552 20.7535C50.8535 21.8543 50.0478 21.428 49.7262 19.367C50.3069 19.7646 50.5489 20.6774 51.4314 20.4779ZM40.03 8.9128C39.5304 8.43056 38.803 8.16934 38.8215 7.31968C41.0975 8.12485 40.9082 8.19374 42.0199 5.8701C42.1195 5.66199 42.195 5.44096 42.3003 5.18262C42.8255 5.48258 43.5486 5.61463 43.3266 6.36382C43.1828 6.84606 42.7316 7.23644 42.3316 7.78757C42.7743 7.83637 43.1316 7.87799 43.4903 7.91244C43.7479 7.93827 44.0611 7.87225 44.2504 7.99712C44.4852 8.15356 44.619 8.465 44.7969 8.71043C44.572 8.82094 44.3514 9.0147 44.1208 9.02618C43.4362 9.05919 42.7487 9.00896 42.0626 9.01326C41.8505 9.0147 41.6384 9.08359 41.4107 9.12521C42.0811 10.0438 42.733 10.803 43.2255 11.6541C43.6383 12.366 43.4106 12.7865 42.5779 13.2099C42.0982 12.0172 41.6199 10.8245 41.1303 9.60888C39.0037 11.1216 37.4494 11.2494 37.0281 9.93899C38.2721 10.315 39.1475 9.70361 40.03 8.9128ZM27.6821 9.82991C27.4657 9.82561 27.238 9.86292 27.0359 9.80838C26.5889 9.68639 26.1562 9.51559 25.5612 9.31179C25.631 10.2605 25.6879 11.0413 25.7463 11.822C25.6851 11.8536 25.6253 11.8852 25.5641 11.9153C25.2751 11.644 24.9876 11.3728 24.6986 11.1015C24.7257 11.0628 24.7542 11.024 24.7812 10.9853C24.8766 11.0226 24.9734 11.0585 25.1143 11.113C25.1143 10.4672 25.1143 9.83852 25.1143 9.20989C24.7371 9.99927 24.2688 10.5877 23.2553 10.1399C23.1144 10.3337 22.9806 10.5203 22.7529 10.8331C22.5949 10.6552 22.4625 10.5073 22.2575 10.2777C22.9464 10.0323 23.4831 9.83996 24.2702 9.55865C24.7997 8.90705 24.8339 8.5669 24.3257 7.71007C24.6702 7.4101 25.0089 7.11588 25.4502 6.73124C25.8744 6.7499 26.0252 6.96949 25.7576 7.54358C25.5498 7.98994 25.4701 8.49801 25.3634 8.87117C26.1377 9.00035 26.7569 9.06493 27.3476 9.22855C27.5041 9.26873 27.5739 9.62037 27.6821 9.82991ZM25.9797 5.82704C25.5911 6.09112 25.1968 6.34947 24.7855 6.57623C24.6744 6.63795 24.4695 6.62934 24.3656 6.56188C24.2972 6.51739 24.273 6.25187 24.3357 6.18441C24.6673 5.8213 24.9961 5.42517 25.4061 5.17401C25.5854 5.06493 25.9569 5.27448 26.354 5.36489C26.1505 5.6218 26.0864 5.75528 25.9797 5.82704ZM22.7799 4.07892C23.177 4.66306 23.6154 4.47074 24.1321 4.29421C24.7157 4.09471 24.9036 3.68567 25.0274 3.14172C25.083 2.9006 25.3164 2.69966 25.4687 2.48151C25.6552 2.71832 25.8744 2.93648 26.0167 3.19913C26.1078 3.36848 26.085 3.60243 26.1049 3.75169C25.5128 4.30426 24.9378 4.8439 24.2659 5.4711C24.219 5.19554 24.1834 4.9903 24.1193 4.6157C23.7564 5.02618 23.4532 5.3692 23.0731 5.79977C22.8795 5.73662 22.5536 5.63185 22.4027 5.58305C22.2746 4.94868 22.1707 4.43486 22.0255 3.72155C22.3842 3.88373 22.6717 3.91961 22.7799 4.07892ZM22.5265 6.31071C22.8653 6.45711 23.1443 6.5791 23.55 6.7542C23.2752 7.07139 23.0589 7.32399 22.8425 7.57372C22.8297 7.37135 22.8169 7.16898 22.8055 6.96231C22.6034 7.10296 22.3643 7.26802 22.1251 7.4345C22.0711 7.39288 22.0155 7.35269 21.9615 7.31107C22.1451 6.98384 22.3301 6.65661 22.5265 6.31071ZM21.5159 8.62001C21.728 8.88553 21.9415 9.15104 22.2404 9.52277C22.3771 9.09507 22.4824 8.76927 22.6091 8.37458C22.4127 8.35162 22.2305 8.33152 21.8931 8.29277C22.2661 8.0129 22.5479 7.80192 22.8269 7.59381C23.2083 7.51057 23.5927 7.42446 24.1293 7.30533C23.7948 8.55112 23.3251 9.50411 22.0711 9.95908C21.8561 9.59597 21.5999 9.16253 21.3437 8.72909C21.4021 8.6932 21.459 8.65732 21.5159 8.62001ZM10.0918 15.512C10.5231 14.8274 10.9743 14.1557 11.454 13.5055C11.5693 13.3505 11.8312 13.3061 12.0248 13.2099C12.1244 13.4324 12.2767 13.6476 12.308 13.8787C12.3422 14.1313 12.3407 14.4399 12.2254 14.6523C11.649 15.7187 12.4034 16.2971 12.987 16.9688C13.7072 16.498 14.2082 15.3513 15.4082 16.31C14.2424 17.5271 13.0894 18.7284 11.9379 19.9297C11.8354 19.8766 11.733 19.822 11.6305 19.7689C11.7614 19.2709 11.8084 18.7269 12.0418 18.2849C12.5386 17.3477 12.0945 16.6659 11.612 15.9483C11.2177 16.0402 10.859 16.1708 10.4903 16.198C10.0178 16.2354 9.83557 15.9182 10.0918 15.512ZM11.3985 22.2303C11.3885 22.272 11.0326 22.315 10.9828 22.2476C10.7423 21.9218 10.3651 21.5472 10.385 21.2113C10.4234 20.597 10.7067 19.9971 10.8875 19.3914C10.9344 19.4058 10.9814 19.4202 11.0284 19.4345C11.202 20.0273 11.4198 20.6114 11.5294 21.2156C11.5878 21.5386 11.4753 21.8988 11.3985 22.2303ZM9.44414 18.3681C9.64626 18.3236 9.93806 18.6867 10.1886 18.8661C10.19 18.9738 10.19 19.0814 10.1914 19.1891C9.94233 19.3613 9.64199 19.7201 9.4541 19.6684C9.05128 19.5565 8.70682 19.2321 8.33817 18.9953C8.70398 18.7729 9.04844 18.4571 9.44414 18.3681ZM8.51609 15.9268C8.7723 15.9655 9.168 16.1923 9.19789 16.3803C9.24487 16.6846 9.12245 17.1051 8.91464 17.3261C8.76803 17.4826 8.32678 17.4811 8.08053 17.3864C7.72184 17.2486 7.42008 16.9616 7.06992 16.7219C7.38307 16.0847 7.88695 15.8321 8.51609 15.9268ZM4.95476 38.615C4.85085 38.0639 5.15119 37.705 6.15041 37.54C6.07782 37.7438 6.01234 37.9519 5.92836 38.1514C5.87143 38.2878 5.78602 38.4126 5.71343 38.5432C5.87997 38.5992 6.05931 38.7269 6.21162 38.6997C6.9774 38.5633 7.73465 38.3868 8.49616 38.2246C8.58441 38.2059 8.67409 38.1916 8.83208 38.1643C8.88048 38.3839 8.92318 38.5748 8.97869 38.826C8.05064 39.0384 7.18664 39.2695 6.30841 39.4245C5.56113 39.5594 5.07148 39.2278 4.95476 38.615ZM6.0892 41.9318C7.27774 41.4725 8.42072 41.0305 9.56371 40.5884C9.64769 40.6401 9.73024 40.6918 9.81422 40.7434C9.71316 40.9472 9.66334 41.2687 9.50535 41.3362C8.48762 41.7725 7.44712 42.1543 6.35823 42.5748C6.26001 42.3452 6.18457 42.1614 6.0892 41.9318ZM8.7723 47.0944C8.06772 46.5619 8.60149 46.2504 8.91891 45.8773C8.62284 45.4309 8.63708 44.6544 7.71899 44.9673C7.59942 45.0075 7.35745 44.6817 7.03434 44.4076C8.4435 44.1234 9.61779 43.8766 10.7992 43.6627C10.933 43.6383 11.1963 43.7689 11.2291 43.8794C11.2846 44.0674 11.2832 44.3645 11.1693 44.4951C10.3992 45.3678 9.59502 46.2088 8.7723 47.0944ZM11.4654 49.385C11.6404 48.9472 11.8241 48.5152 11.9265 48.0029C11.5365 48.3243 11.1337 48.6329 10.7608 48.9731C10.4291 49.2759 10.1914 49.2659 9.98076 48.7535C10.9017 47.9813 11.8426 47.1919 12.7749 46.4083C13.3243 46.7944 13.3229 46.793 12.9556 47.6426C12.7592 48.0961 12.5713 48.554 12.3792 49.009C12.4133 49.0334 12.4475 49.0578 12.4817 49.0822C12.8816 48.7477 13.2944 48.4291 13.6759 48.0746C14.0332 47.7416 14.2438 47.8522 14.4417 48.3043C13.5065 49.0893 12.5656 49.8773 11.6319 50.6609C10.8789 50.282 11.2917 49.8184 11.4654 49.385ZM17.1817 52.0517C17.0949 52.0847 17.0095 52.1177 16.9226 52.1493C16.8173 51.9354 16.6565 51.7316 16.618 51.5077C16.5042 50.8461 15.9732 50.5289 15.4537 50.9322C15.0779 51.2235 14.7691 51.6555 14.5627 52.089C14.4773 52.2698 14.6694 52.6875 14.8587 52.8654C15.0167 53.0147 15.3526 52.9702 15.6103 53.0118C15.6331 52.9401 15.6544 52.8669 15.6772 52.7951C15.5533 52.6358 15.4295 52.475 15.2701 52.2712C15.3854 52.1234 15.5092 51.9655 15.6701 51.7589C16.0387 52.0775 16.3704 52.3645 16.6935 52.6444C15.6758 54.3222 14.9655 54.0308 14.1855 53.2285C13.9036 52.9401 13.7969 52.2971 13.8794 51.8679C14.0474 51.0011 14.6609 50.404 15.4964 50.1098C16.127 49.8873 16.6664 50.1112 17.0821 50.6135C17.4621 51.0714 17.4493 51.5622 17.1817 52.0517ZM20.5708 54.4126C20.3744 54.1227 20.2463 53.9132 20.0968 53.7194C19.9616 53.5457 19.8221 53.3635 19.647 53.2429C19.5801 53.197 19.405 53.3147 19.2798 53.3563C19.3652 53.5587 19.4463 53.7625 19.536 53.9634C19.731 54.3997 20.1324 54.8633 20.0726 55.2594C20.0143 55.6527 19.5417 56.1851 19.1645 56.2712C18.7802 56.3602 18.2151 56.0703 17.8664 55.7804C17.4422 55.4273 17.529 54.8877 17.8792 54.2016C18.077 54.5016 18.2137 54.6997 18.3403 54.9063C18.4656 55.1116 18.5439 55.3656 18.7147 55.5149C18.8072 55.5952 19.146 55.5637 19.2029 55.4733C19.2912 55.334 19.2897 55.0771 19.2243 54.9121C19.1503 54.7226 18.9666 54.5748 18.8257 54.4155C18.3788 53.9117 18.3603 53.3864 18.7773 52.8654C19.1545 52.3947 19.7381 52.3559 20.306 52.7506C20.8526 53.131 21.0035 53.6161 20.5708 54.4126ZM25.0047 54.9982C24.7285 55.8062 24.4752 56.6243 24.1592 57.4166C23.8588 58.1715 23.3493 58.3796 22.6319 58.1256C21.8675 57.8543 21.6056 57.3792 21.8405 56.5698C22.0767 55.7503 22.3614 54.9451 22.6461 54.0696C22.8724 54.1299 23.0603 54.1801 23.261 54.2332C23.261 54.338 23.2781 54.4097 23.2582 54.47C23.0276 55.169 22.8027 55.8708 22.5536 56.564C22.4084 56.9673 22.4625 57.3419 22.8838 57.4094C23.0902 57.4424 23.4703 57.1654 23.5727 56.9386C23.9001 56.211 24.135 55.4402 24.4211 54.6408C24.6431 54.7169 24.8125 54.7743 24.9605 54.8245C24.9833 54.9092 25.0175 54.9623 25.0047 54.9982ZM30.8392 58.5303C30.7367 59.3297 30.2741 59.7158 29.5595 59.6699C28.7781 59.6196 28.3439 59.1919 28.3625 58.371C28.3824 57.4926 28.4834 56.6157 28.5503 55.7086C29.0898 55.6196 29.2848 55.7402 29.2122 56.2282C29.124 56.8166 29.1026 57.4166 29.0499 58.0107C29.0101 58.4499 29.0485 58.8733 29.5908 58.9164C30.0833 58.9551 30.1189 58.5533 30.1573 58.1815C30.2356 57.4036 30.3267 56.6286 30.4121 55.8507C30.4933 55.8163 30.5758 55.7804 30.657 55.7459C30.7836 55.9383 31.0185 56.132 31.0157 56.3215C31 57.0578 30.9331 57.7983 30.8392 58.5303ZM11.3316 32.5985C11.017 21.1424 20.168 11.4962 31.8099 11.3541C43.2341 11.301 52.3566 20.4004 52.6498 31.4431C52.9516 42.8001 43.9557 52.3846 32.4547 52.6315C20.837 52.8812 11.6376 43.6469 11.3316 32.5985ZM33.6247 57.563C33.6617 58.1198 33.7215 58.6738 33.7215 59.2278C33.7215 59.3742 33.5322 59.5206 33.4297 59.667C33.3244 59.5465 33.1408 59.4359 33.1251 59.3039C33.0098 58.3322 32.9159 57.3577 32.849 56.3818C32.8376 56.2095 32.9799 56.0258 33.0525 55.8478C33.2632 55.9526 33.5493 56.0014 33.6731 56.1708C34.0461 56.6846 34.3564 57.2458 34.8232 57.7553C34.7791 57.23 34.7051 56.7047 34.7065 56.1794C34.7065 56.0086 34.9044 55.8378 35.0111 55.667C35.1278 55.812 35.33 55.9483 35.347 56.1048C35.4623 57.1941 35.5378 58.2863 35.6403 59.5508C34.3194 59.4101 34.3834 58.0854 33.6247 57.563ZM37.7953 58.5547C37.6102 57.6706 37.3526 56.8037 37.1391 55.9254C37.011 55.4001 37.021 55.3972 37.6871 55.2163C37.9903 56.4248 38.2935 57.6318 38.5952 58.8331C38.134 59.1015 37.9049 59.08 37.7953 58.5547ZM41.9231 57.8299C41.7651 57.8844 41.4747 57.8644 41.3836 57.7553C40.6236 56.8453 39.8976 55.9067 39.1632 54.9795C39.5404 54.4973 39.825 54.5992 40.1197 55.0097C40.4798 55.5106 40.8712 55.9885 41.3936 56.4506C41.3353 55.8163 41.3082 55.1762 41.2071 54.5475C41.1331 54.0839 41.2812 53.8715 41.8306 53.8328C41.9601 55.0542 42.0953 56.2368 42.1964 57.4209C42.2092 57.5572 42.0512 57.7854 41.9231 57.8299ZM46.7214 55.4977C46.1976 55.7718 45.6908 56.0789 45.0859 56.4234C44.434 55.2938 43.8191 54.2318 43.1743 53.1137C43.8604 52.7119 44.4909 52.3444 45.1713 51.9469C45.3022 52.132 45.4175 52.2956 45.5798 52.5238C45.1001 52.8123 44.6631 53.075 44.2319 53.3333C44.3201 54.1327 44.6959 53.9347 45.1414 53.6677C45.4859 53.4625 45.9243 52.9903 46.1364 53.8787C45.7506 54.1227 45.3563 54.371 44.9009 54.6595C45.046 54.9164 45.1798 55.1503 45.3364 55.4273C45.846 55.1518 46.3 54.9063 46.7755 54.6494C47.1413 54.9709 47.2281 55.2321 46.7214 55.4977ZM49.9596 52.3803C49.5354 52.211 49.07 52.1492 48.623 52.0387C48.5874 52.1205 48.5504 52.2024 48.5148 52.2842C48.8251 52.6588 49.1354 53.0334 49.4785 53.4467C49.3077 53.5988 49.1568 53.7309 48.9646 53.9002C48.122 52.93 47.3149 52.0014 46.458 51.0168C46.8025 50.7183 47.0744 50.4887 47.3391 50.2519C47.759 49.8744 48.1946 49.507 48.7867 49.86C49.3618 50.2045 49.5838 50.7212 49.3561 51.3556C49.9197 51.5651 50.462 51.766 51.0328 51.9785C50.7652 52.5267 50.4336 52.5698 49.9596 52.3803ZM53.3345 49.7581C52.8363 50.3222 52.3352 50.3581 51.5396 49.86C51.6648 49.563 51.7061 49.2515 52.21 49.4194C52.3836 49.4768 52.6968 49.2501 52.8775 49.0793C52.9516 49.009 52.8491 48.5913 52.8135 48.5899C52.5772 48.5784 52.3352 48.6214 52.1018 48.6774C51.9922 48.7033 51.9011 48.7994 51.7972 48.8568C51.1609 49.2041 50.6001 49.1195 50.2172 48.61C49.84 48.1062 49.9539 47.6268 50.3311 47.1848C50.7809 46.6566 51.2193 46.6135 52.1274 47.1546C51.7645 47.3111 51.5481 47.4015 51.3346 47.4977C51.1538 47.5795 50.9417 47.6326 50.8094 47.766C50.7311 47.845 50.741 48.0703 50.7923 48.198C50.815 48.2569 51.0442 48.2813 51.1552 48.2454C51.3317 48.188 51.4869 48.066 51.6506 47.9713C52.3879 47.5421 52.9516 47.601 53.4199 48.155C53.8398 48.6516 53.8099 49.2199 53.3345 49.7581ZM55.0169 46.6566C54.0561 46.1055 53.1238 45.5027 52.1317 44.8855C52.247 44.6731 52.3409 44.5023 52.4662 44.2727C53.5494 44.9472 54.5885 45.5917 55.6261 46.2375C55.6389 46.338 55.6532 46.4384 55.666 46.5389C55.4468 46.5834 55.1635 46.7413 55.0169 46.6566ZM57.1463 43.6311C56.1898 43.2135 55.2859 42.8202 54.3251 42.4026C54.1714 42.7054 54.0647 42.9135 53.9323 43.1733C53.7302 43.0929 53.5451 43.0197 53.3373 42.9379C53.37 42.8087 53.3814 42.7154 53.417 42.6336C53.6334 42.1299 53.8711 41.6362 54.0732 41.1266C54.271 40.6272 54.5301 40.5813 54.913 40.9731C54.8233 41.2128 54.7351 41.4524 54.6283 41.7395C55.5606 42.1614 56.4588 42.5691 57.4139 43.0011C57.32 43.2221 57.2431 43.4044 57.1463 43.6311ZM58.3818 39.2694C57.263 38.7872 56.2054 39.1948 55.1336 39.4259C55.0454 39.4445 54.9514 39.4288 54.7934 39.4288C54.829 38.272 55.8624 38.7743 56.3264 38.3681C56.1727 37.7897 54.9386 37.7137 55.5635 36.6702C56.5798 37.5142 57.3755 38.6537 58.8658 38.6408C58.8871 38.7226 58.9085 38.8044 58.9312 38.8862C58.7433 39.0212 58.49 39.3154 58.3818 39.2694ZM58.4274 18.3466C57.8196 18.5102 57.2146 18.6882 56.53 18.8819C56.8246 19.3312 57.1178 19.6512 57.2545 20.0287C57.3413 20.2684 57.1961 20.5942 57.1548 20.8812C56.9484 20.7621 56.7065 20.6789 56.5442 20.5167C56.2396 20.211 55.9805 19.8565 55.703 19.5235C55.74 19.4761 55.777 19.4302 55.8154 19.3828C56.0019 19.4273 56.1884 19.4718 56.3777 19.5163C56.3777 19.4632 56.3962 19.4044 56.3748 19.3828C55.3144 18.2275 54.0789 17.3434 52.5701 16.8755C52.4235 16.8296 52.2498 16.6918 52.2057 16.5583C52.1772 16.4722 52.3423 16.2368 52.4591 16.2024C52.9017 16.0732 53.3601 15.9986 54.0106 15.8622C53.6263 16.2095 53.3914 16.4219 53.101 16.6846C53.427 16.841 53.696 16.9716 53.9664 17.1008C53.9252 17.042 53.8853 16.9817 53.844 16.9228C54.6269 16.2239 55.4083 15.5264 56.1912 14.8274C56.2567 14.8834 56.3222 14.9379 56.3876 14.9939C56.1898 15.3053 55.9919 15.6182 55.6802 16.1076C56.167 15.878 56.4759 15.733 56.8175 15.5723C56.994 16.244 57.3669 16.3602 57.9434 16.0473C58.0672 15.9799 58.295 16.1062 58.4743 16.1435C58.3775 16.333 58.3092 16.5482 58.1711 16.6989C58.0971 16.7808 57.8936 16.7276 57.7641 16.7764C57.6061 16.8367 57.347 16.93 57.3385 17.0276C57.3228 17.2085 57.4153 17.4424 57.5434 17.5773C57.6687 17.7094 57.9619 17.8586 58.0587 17.7998C58.2039 17.7094 58.2423 17.4438 58.3476 17.2041C58.4217 17.2156 58.564 17.1941 58.6295 17.2558C58.9213 17.5271 59.1917 17.8213 59.4693 18.1069C59.1205 18.1859 58.7704 18.2547 58.4274 18.3466Z" fill="#18222D"/>
<path d="M46.431 20.1349C43.1401 20.1349 39.899 20.1349 36.5597 20.1349C36.5597 20.4305 36.5597 20.6444 36.5597 20.8582C36.5768 25.5687 36.5526 30.2806 36.6337 34.991C36.6622 36.6717 36.0971 38.0165 34.9726 39.1747C34.7634 39.39 34.4944 39.6541 34.2282 39.6885C33.229 39.8177 32.2198 39.9096 31.2135 39.9153C30.6925 39.9182 30.1701 39.7129 29.5396 39.578C29.6961 39.8923 29.7915 40.1076 29.9068 40.31C31.8739 43.8077 35.374 45.1396 38.9539 44.7032C43.5998 44.1363 46.5548 40.6186 46.5619 35.7545C46.5704 30.7327 46.5206 25.7108 46.4936 20.6903C46.4907 20.5095 46.4523 20.3286 46.431 20.1349Z" fill="#18222D"/>
<path d="M24.569 24.5238C25.3718 23.766 26.1277 22.9307 26.7625 22.0265C27.1297 21.5041 27.2123 20.7807 27.4571 20.0459C24.1349 20.0459 21.0106 20.0502 17.8876 20.0402C17.4236 20.0387 17.4193 20.3172 17.425 20.6516C17.5104 25.596 17.5944 30.5389 17.6784 35.4833C17.9417 32.6013 18.7687 29.9548 20.7871 27.8651C21.95 26.658 23.3449 25.6792 24.569 24.5238Z" fill="#18222D"/>
<path d="M25.2239 46.6824C22.5807 44.5181 20.9865 41.7711 20.8128 38.305C20.679 35.6297 21.0405 33.0477 22.8269 30.8905C23.54 30.0308 24.2617 29.1726 25.0474 28.3803C26.7156 26.6968 27.8002 24.8109 27.3334 22.1198C26.7199 24.1291 25.362 25.3261 24.0026 26.5231C23.3436 27.1044 22.696 27.6986 22.0583 28.3042C18.8186 31.3785 18.0358 35.1661 18.8542 39.4388C19.6001 43.3297 22.1593 45.7022 25.4075 47.5106C25.8573 47.7603 26.3498 47.9311 26.8238 48.1392C26.3313 47.568 25.7719 47.1317 25.2239 46.6824Z" fill="#18222D"/>
<path d="M24.6005 40.4018C24.4595 39.8493 24.3713 39.2795 24.3101 38.7111C24.0653 36.4062 24.3556 34.1945 25.7933 32.31C27.0757 30.6265 27.6494 28.8008 27.3021 26.6322C27.211 26.836 27.1298 26.9968 27.0672 27.1632C26.7341 28.0703 26.2317 28.8339 25.5228 29.517C23.5158 31.4546 22.3245 33.8414 22.1024 36.6487C21.6569 42.2633 24.9221 46.6064 29.5638 48.3559C31.6861 49.1553 33.8155 49.0821 35.9734 48.3416C34.8802 48.2081 33.807 48.1909 32.7949 47.934C28.744 46.9078 25.6965 44.7133 24.6005 40.4018Z" fill="#18222D"/>
<path d="M30.9586 17.1496C30.9914 17.9031 30.9914 17.9031 29.8327 17.6907C29.7786 17.7581 29.7231 17.827 29.669 17.8945C29.9253 18.0624 30.2171 18.4011 30.4306 18.3581C30.7935 18.2849 31.3401 18.0179 31.397 17.7452C31.5365 17.0735 31.5095 16.343 31.4198 15.6526C31.3572 15.1733 30.886 14.9207 30.4448 15.0771C30.1245 15.1905 29.7502 15.5163 29.652 15.8277C29.3801 16.6875 29.9523 17.2228 30.9586 17.1496ZM30.4548 15.4402C30.5359 15.4431 30.617 15.446 30.6996 15.4503C30.8078 15.7058 31.017 15.9713 30.9942 16.2138C30.9757 16.4133 30.6811 16.587 30.5088 16.7707C30.3765 16.5238 30.1658 16.287 30.1359 16.0272C30.1146 15.8464 30.3395 15.6369 30.4548 15.4402Z" fill="#18222D"/>
<path d="M33.2802 18.3466C33.5734 18.338 33.9477 18.0495 34.1185 17.7768C34.2908 17.4998 34.2566 17.0922 34.3121 16.7492C34.2609 16.3803 34.2993 15.977 34.1356 15.6929C33.9762 15.4144 33.609 15.0901 33.3328 15.0901C33.051 15.0901 32.5642 15.4245 32.5243 15.6713C32.4133 16.3574 32.4219 17.085 32.5272 17.7739C32.5614 18.0122 33.0211 18.3538 33.2802 18.3466ZM32.9414 16.1607C33.0368 15.9297 33.2033 15.7287 33.3385 15.5149C33.4723 15.7359 33.6403 15.944 33.7285 16.1823C33.7897 16.3488 33.7399 16.5554 33.7399 16.7449C33.7883 16.7678 33.8367 16.7894 33.8851 16.8123C33.7072 17.1798 33.4923 17.8744 33.357 17.8601C32.6852 17.784 33.0012 17.1324 32.893 16.719C32.8503 16.5454 32.8731 16.3258 32.9414 16.1607Z" fill="#18222D"/>
<path d="M35.6829 17.1324C35.4267 17.4711 35.2018 17.8328 34.8616 18.3337C35.6089 18.3337 36.127 18.3509 36.6422 18.3193C36.7504 18.3136 36.8472 18.1313 36.9497 18.0294C36.8501 17.9548 36.759 17.8357 36.6479 17.8127C36.4302 17.7682 36.201 17.7768 35.8195 17.7538C36.1085 17.4395 36.3391 17.2616 36.47 17.0291C36.6707 16.6688 36.897 16.2799 36.9426 15.8823C37.0095 15.2953 36.6152 15.0312 36.0501 15.0398C35.4864 15.0484 35.1078 15.2508 35.1477 16.0689C35.3783 15.9182 35.5007 15.8034 35.6459 15.7517C35.8565 15.6756 36.0843 15.644 36.3049 15.5938C36.3291 15.8364 36.4501 16.1277 36.3576 16.3114C36.201 16.62 35.8964 16.8482 35.6829 17.1324Z" fill="#18222D"/>
<path d="M27.9127 17.9763C27.917 18.0897 28.0793 18.1959 28.1675 18.305C28.243 18.2059 28.381 18.1084 28.3825 18.0079C28.3995 17.042 28.3924 16.0761 28.3924 15.1001C27.7875 15.179 27.1626 15.8091 27.1783 16.3043C27.379 16.2095 27.564 16.1234 27.8999 15.9655C27.8999 16.7047 27.8871 17.3405 27.9127 17.9763Z" fill="#18222D"/>
</svg>
